<svg width="22" height="22" viewBox="0 0 22 22" fill="none" xmlns="http://www.w3.org/2000/svg">
<path d="M11 21.5C10.675 21.5 10.4062 21.3938 10.1937 21.1813C9.98125 20.9688 9.875 20.7 9.875 20.375V12.125H1.625C1.3 12.125 1.03125 12.0188 0.81875 11.8063C0.60625 11.5938 0.5 11.325 0.5 11C0.5 10.675 0.60625 10.4062 0.81875 10.1937C1.03125 9.98125 1.3 9.875 1.625 9.875H9.875V1.625C9.875 1.3 9.98125 1.03125 10.1937 0.81875C10.4062 0.60625 10.675 0.5 11 0.5C11.325 0.5 11.5938 0.60625 11.8063 0.81875C12.0188 1.03125 12.125 1.3 12.125 1.625V9.875H20.375C20.7 9.875 20.9688 9.98125 21.1813 10.1937C21.3938 10.4062 21.5 10.675 21.5 11C21.5 11.325 21.3938 11.5938 21.1813 11.8063C20.9688 12.0188 20.7 12.125 20.375 12.125H12.125V20.375C12.125 20.7 12.0188 20.9688 11.8063 21.1813C11.5938 21.3938 11.325 21.5 11 21.5Z" fill="white"/>
</svg>
