<svg width="11" height="20" viewBox="0 0 11 20" fill="none" xmlns="http://www.w3.org/2000/svg">
<path d="M9 18.875L0.225 10.1C0.141667 10.0167 0.0833333 9.93333 0.05 9.85C0.0166666 9.76667 0 9.675 0 9.575C0 9.475 0.0166666 9.38333 0.05 9.3C0.0833333 9.21667 0.141667 9.13333 0.225 9.05L9 0.275C9.18333 0.0916668 9.41667 0 9.7 0C9.98333 0 10.2167 0.0916668 10.4 0.275C10.6 0.475 10.7 0.7125 10.7 0.9875C10.7 1.2625 10.6 1.5 10.4 1.7L2.525 9.575L10.4 17.45C10.6 17.65 10.6958 17.8875 10.6875 18.1625C10.6792 18.4375 10.5833 18.6667 10.4 18.85C10.2 19.05 9.9625 19.15 9.6875 19.15C9.4125 19.15 9.18333 19.0583 9 18.875Z" fill="black"/>
</svg>
