<svg width="20" height="24" viewBox="0 0 20 24" fill="none" xmlns="http://www.w3.org/2000/svg">
<path d="M12 7V0.46C12.913 0.806 13.753 1.339 14.465 2.05L17.949 5.536C18.661 6.247 19.194 7.087 19.54 8H13C12.448 8 12 7.551 12 7ZM13.5 15H6.5C6.224 15 6 15.224 6 15.5V17.5C6 17.776 6.224 18 6.5 18H13.5C13.776 18 14 17.776 14 17.5V15.5C14 15.224 13.776 15 13.5 15ZM20 10.485V19C20 21.757 17.757 24 15 24H5C2.243 24 0 21.757 0 19V5C0 2.243 2.243 0 5 0H9.515C9.678 0 9.839 0.013 10 0.024V7C10 8.654 11.346 10 13 10H19.976C19.987 10.161 20 10.322 20 10.485ZM4 6C4 6.552 4.448 7 5 7H7C7.552 7 8 6.552 8 6C8 5.448 7.552 5 7 5H5C4.448 5 4 5.448 4 6ZM4 10C4 10.552 4.448 11 5 11H7C7.552 11 8 10.552 8 10C8 9.448 7.552 9 7 9H5C4.448 9 4 9.448 4 10ZM16 15.5C16 14.122 14.878 13 13.5 13H6.5C5.122 13 4 14.122 4 15.5V17.5C4 18.878 5.122 20 6.5 20H13.5C14.878 20 16 18.878 16 17.5V15.5Z" fill="#0CABDF"/>
</svg>
