<svg width="14" height="8" viewBox="0 0 14 8" fill="none" xmlns="http://www.w3.org/2000/svg">
<path d="M12.9167 1.33331L7.06666 7.18331C7.01111 7.23887 6.95555 7.27776 6.89999 7.29998C6.84444 7.3222 6.78333 7.33331 6.71666 7.33331C6.64999 7.33331 6.58888 7.3222 6.53333 7.29998C6.47777 7.27776 6.42222 7.23887 6.36666 7.18331L0.516661 1.33331C0.394439 1.21109 0.333328 1.05554 0.333328 0.866646C0.333328 0.677757 0.394439 0.522202 0.516661 0.39998C0.649995 0.266646 0.808328 0.19998 0.991661 0.19998C1.17499 0.19998 1.33333 0.266646 1.46666 0.39998L6.71666 5.64998L11.9667 0.399979C12.1 0.266646 12.2583 0.202757 12.4417 0.208312C12.625 0.213868 12.7778 0.277757 12.9 0.399979C13.0333 0.533313 13.1 0.691646 13.1 0.874979C13.1 1.05831 13.0389 1.21109 12.9167 1.33331Z" fill="#0CABDF"/>
</svg>
